<?xml version="1.0" encoding="UTF-8" standalone="no"?>
<svg
   xmlns:dc="http://purl.org/dc/elements/1.1/"
   xmlns:cc="http://creativecommons.org/ns#"
   xmlns:rdf="http://www.w3.org/1999/02/22-rdf-syntax-ns#"
   xmlns:svg="http://www.w3.org/2000/svg"
   xmlns="http://www.w3.org/2000/svg"
   xmlns:sodipodi="http://sodipodi.sourceforge.net/DTD/sodipodi-0.dtd"
   xmlns:inkscape="http://www.inkscape.org/namespaces/inkscape"
   inkscape:version="1.0 (4035a4f, 2020-05-01)"
   sodipodi:docname="interview.svg"
   id="svg843"
   version="1.1"
   width="25pt"
   viewBox="0 0 25 25"
   height="25pt">
  <metadata
     id="metadata849">
    <rdf:RDF>
      <cc:Work
         rdf:about="">
        <dc:format>image/svg+xml</dc:format>
        <dc:type
           rdf:resource="http://purl.org/dc/dcmitype/StillImage" />
        <dc:title></dc:title>
      </cc:Work>
    </rdf:RDF>
  </metadata>
  <defs
     id="defs847" />
  <sodipodi:namedview
     inkscape:current-layer="svg843"
     inkscape:window-maximized="1"
     inkscape:window-y="23"
     inkscape:window-x="1920"
     inkscape:cy="26.645453"
     inkscape:cx="40.737527"
     inkscape:zoom="12.704853"
     showgrid="false"
     id="namedview845"
     inkscape:window-height="1035"
     inkscape:window-width="1920"
     inkscape:pageshadow="2"
     inkscape:pageopacity="0"
     guidetolerance="10"
     gridtolerance="10"
     objecttolerance="10"
     borderopacity="1"
     bordercolor="#666666"
     pagecolor="#ffffff" />
  <path
     style="fill:#ffffff;stroke-width:0.0433977"
     id="path833"
     d="m 6.5841041,17.93838 c 0.8373844,-0.608564 1.3775078,-1.55744 1.3775078,-2.622265 0,-1.832408 -1.597558,-3.323195 -3.5609893,-3.323195 -1.9634311,0 -3.56081354,1.490787 -3.56081354,3.323195 0,1.064825 0.54012344,2.013701 1.37733224,2.622265 -1.1816735,0.656058 -2.09907623,1.895133 -2.09907623,3.440126 v 1.347162 c 0,0.347355 0.30164789,0.628872 0.67383819,0.628872 H 8.0095177 c 0.3720148,0 0.6738382,-0.281517 0.6738382,-0.628872 v -1.347162 c 0,-1.544666 -0.9172273,-2.783904 -2.0992518,-3.440126 z M 2.1874853,15.316115 c 0,-1.138848 0.9928585,-2.065451 2.2133129,-2.065451 1.2202789,0 2.2131373,0.926603 2.2131373,2.065451 0,1.139012 -0.9928584,2.065615 -2.2131373,2.065615 -1.2204544,0 -2.2133129,-0.926603 -2.2133129,-2.065615 z m 5.1481941,6.780682 H 1.4657415 v -0.718291 c 0,-1.512895 1.3115277,-2.739032 2.9348811,-2.739032 1.6210723,0 2.9348813,1.224008 2.9348813,2.739032 v 0.718291 z m 0,0" />
  <path
     style="fill:#ffffff;stroke-width:0.0433977"
     id="path835"
     d="m 20.279341,1.889042 h -8.661103 c -1.568079,0 -2.8390707,1.1840482 -2.8390707,2.6496148 V 16.663277 c 0,0.514398 0.6320744,0.81524 1.0781414,0.503098 l 2.7072873,-1.894969 h 7.714745 c 1.568078,0 2.839069,-1.184048 2.839069,-2.649614 V 4.5386568 c 0,-1.4634377 -1.26871,-2.6496148 -2.839069,-2.6496148 z m 1.491394,10.73275 c 0,0.769385 -0.666645,1.39187 -1.491394,1.39187 h -7.939358 c -0.145824,0 -0.28761,0.04421 -0.404303,0.125775 l -1.808836,1.266096 V 4.5386568 c 0,-0.7693857 0.666644,-1.3918707 1.491394,-1.3918707 h 8.661103 c 0.824399,0 1.491394,0.6221575 1.491394,1.3918707 z m 0,0" />
  <path
     style="fill:#ffffff;stroke-width:0.0433977"
     id="path837"
     d="m 19.557598,5.2569465 h -7.217615 c -0.372191,0 -0.673839,0.2816821 -0.673839,0.6288719 0,0.3473536 0.301648,0.628872 0.673839,0.628872 h 7.217615 c 0.372014,0 0.673837,-0.2815184 0.673837,-0.628872 0,-0.3471898 -0.301648,-0.6288719 -0.673837,-0.6288719 z m 0,0" />
  <path
     style="fill:#ffffff;stroke-width:0.0433977"
     id="path839"
     d="m 19.557598,7.9514335 h -7.217615 c -0.372191,0 -0.673839,0.2815188 -0.673839,0.628872 0,0.3471897 0.301648,0.628872 0.673839,0.628872 h 7.217615 c 0.372014,0 0.673837,-0.2816823 0.673837,-0.628872 0,-0.3473532 -0.301648,-0.628872 -0.673837,-0.628872 z m 0,0" />
  <path
     style="fill:#ffffff;stroke-width:0.0433977"
     id="path841"
     d="m 15.948702,10.645757 h -3.608719 c -0.372191,0 -0.673839,0.281519 -0.673839,0.628872 0,0.347354 0.301648,0.628873 0.673839,0.628873 h 3.608719 c 0.37219,0 0.673838,-0.281519 0.673838,-0.628873 0,-0.347353 -0.301648,-0.628872 -0.673838,-0.628872 z m 0,0" />
</svg>
