<?xml version="1.0" encoding="UTF-8" standalone="no"?>
<svg
   xmlns:dc="http://purl.org/dc/elements/1.1/"
   xmlns:cc="http://creativecommons.org/ns#"
   xmlns:rdf="http://www.w3.org/1999/02/22-rdf-syntax-ns#"
   xmlns:svg="http://www.w3.org/2000/svg"
   xmlns="http://www.w3.org/2000/svg"
   xmlns:sodipodi="http://sodipodi.sourceforge.net/DTD/sodipodi-0.dtd"
   xmlns:inkscape="http://www.inkscape.org/namespaces/inkscape"
   id="Capa_1"
   enable-background="new 0 0 511.999 511.999"
   height="30"
   viewBox="0 0 29.999941 29.999941"
   width="30"
   version="1.1"
   sodipodi:docname="summary.svg"
   inkscape:version="1.0 (4035a4f, 2020-05-01)">
  <metadata
     id="metadata852">
    <rdf:RDF>
      <cc:Work
         rdf:about="">
        <dc:format>image/svg+xml</dc:format>
        <dc:type
           rdf:resource="http://purl.org/dc/dcmitype/StillImage" />
        <dc:title />
      </cc:Work>
    </rdf:RDF>
  </metadata>
  <defs
     id="defs850" />
  <sodipodi:namedview
     inkscape:document-rotation="0"
     pagecolor="#ffffff"
     bordercolor="#666666"
     borderopacity="1"
     objecttolerance="10"
     gridtolerance="10"
     guidetolerance="10"
     inkscape:pageopacity="0"
     inkscape:pageshadow="2"
     inkscape:window-width="1920"
     inkscape:window-height="1035"
     id="namedview848"
     showgrid="false"
     inkscape:zoom="1.296875"
     inkscape:cx="256"
     inkscape:cy="256"
     inkscape:window-x="1920"
     inkscape:window-y="23"
     inkscape:window-maximized="1"
     inkscape:current-layer="Capa_1" />
  <g
     id="g845"
     transform="matrix(0.04882812,0,0,0.04882832,0,2.499945)"
     style="fill:#ffffff">
    <path
       d="m 144.998,254.999 h 171.375 c 8.284,0 15,-6.716 15,-15 0,-8.284 -6.716,-15 -15,-15 H 144.998 c -8.284,0 -15,6.716 -15,15 0,8.285 6.716,15 15,15 z"
       id="path833"
       style="fill:#ffffff" />
    <path
       d="m 175.002,194.994 h 141.371 c 8.284,0 15,-6.716 15,-15 0,-8.284 -6.716,-15 -15,-15 H 175.002 c -8.284,0 -15,6.716 -15,15 0,8.284 6.716,15 15,15 z"
       id="path835"
       style="fill:#ffffff" />
    <path
       d="m 144.998,315.005 h 152.281 c 8.284,0 15,-6.716 15,-15 0,-8.284 -6.716,-15 -15,-15 H 144.998 c -8.284,0 -15,6.716 -15,15 0,8.284 6.716,15 15,15 z"
       id="path837"
       style="fill:#ffffff" />
    <path
       d="M 245.533,345.011 H 144.998 c -8.284,0 -15,6.716 -15,15 0,8.284 6.716,15 15,15 h 100.535 c 8.284,0 15,-6.716 15,-15 0,-8.284 -6.716,-15 -15,-15 z"
       id="path839"
       style="fill:#ffffff" />
    <path
       d="m 511.999,258.56 c 0,-12.02 -4.682,-23.321 -13.182,-31.82 -8.498,-8.499 -19.799,-13.181 -31.819,-13.181 -12.02,0 -23.321,4.681 -31.82,13.181 l -33.803,33.803 V 118.102 c 25.849,-6.678 45,-30.195 45,-58.101 0,-33.084 -26.916,-60 -60,-60 H 74.998 C 33.644,0.001 0,33.644 0,74.998 v 361.994 c 0,8.284 6.716,15 15,15 h 44.998 v 45.006 c 0,8.284 6.716,15 15,15 h 311.377 c 8.284,0 15,-6.716 15,-15 V 387.823 l 97.442,-97.442 c 8.5,-8.501 13.182,-19.801 13.182,-31.821 z m -160.238,136.451 -21.218,0.003 0.003,-21.217 86.949,-86.949 21.214,21.214 z M 416.375,60 c 0,16.542 -13.458,30 -30,30 H 126.932 c 5.122,-8.832 8.066,-19.076 8.066,-30 0,-10.925 -2.95,-21.167 -8.072,-30 h 259.449 c 16.542,0 30,13.458 30,30 z M 59.998,105.001 V 421.993 H 30 V 74.998 C 30,50.186 50.186,30 74.998,30 c 16.542,0 30,13.458 30,30 0,16.542 -13.458,30 -30,30 -8.284,0.001 -15,6.716 -15,15.001 z M 371.375,481.999 H 89.998 V 120.001 h 281.377 v 170.542 l -66.435,66.434 c -2.813,2.813 -4.393,6.627 -4.393,10.605 l -0.005,36.22 -5.609,5.608 c -5.857,5.857 -5.858,15.355 -10e-4,21.214 2.93,2.929 6.769,4.394 10.607,4.394 3.839,0 7.677,-1.465 10.607,-4.393 l 5.609,-5.609 36.222,-0.005 c 3.978,-0.001 7.792,-1.581 10.604,-4.393 l 2.794,-2.794 z M 477.604,269.167 459.921,286.85 438.707,265.636 456.39,247.953 c 2.833,-2.833 6.601,-4.394 10.607,-4.394 4.007,0 7.774,1.561 10.607,4.395 2.834,2.833 4.395,6.6 4.395,10.606 0,4.006 -1.56,7.772 -4.395,10.607 z"
       id="path841"
       style="fill:#ffffff" />
    <path
       d="M 245.533,405.017 H 144.998 c -8.284,0 -15,6.716 -15,15 0,8.284 6.716,15 15,15 h 100.535 c 8.284,0 15,-6.716 15,-15 0,-8.284 -6.716,-15 -15,-15 z"
       id="path843"
       style="fill:#ffffff" />
  </g>
</svg>
