<?xml version="1.0" encoding="UTF-8" standalone="no"?>
<svg
   xmlns:dc="http://purl.org/dc/elements/1.1/"
   xmlns:cc="http://creativecommons.org/ns#"
   xmlns:rdf="http://www.w3.org/1999/02/22-rdf-syntax-ns#"
   xmlns:svg="http://www.w3.org/2000/svg"
   xmlns="http://www.w3.org/2000/svg"
   xmlns:sodipodi="http://sodipodi.sourceforge.net/DTD/sodipodi-0.dtd"
   xmlns:inkscape="http://www.inkscape.org/namespaces/inkscape"
   height="21"
   width="32"
   inkscape:version="1.0 (4035a4f, 2020-05-01)"
   sodipodi:docname="suppliers.svg"
   xml:space="preserve"
   viewBox="0 0 32 21"
   y="0px"
   x="0px"
   id="Capa_1"
   version="1.1"><metadata
   id="metadata109"><rdf:RDF><cc:Work
       rdf:about=""><dc:format>image/svg+xml</dc:format><dc:type
         rdf:resource="http://purl.org/dc/dcmitype/StillImage" /><dc:title></dc:title></cc:Work></rdf:RDF></metadata><defs
   id="defs107" /><sodipodi:namedview
   showguides="false"
   inkscape:current-layer="Capa_1"
   inkscape:window-maximized="0"
   inkscape:window-y="23"
   inkscape:window-x="1920"
   inkscape:cy="42.00795"
   inkscape:cx="74.27402"
   inkscape:zoom="3.8909971"
   showgrid="false"
   id="namedview105"
   inkscape:window-height="1035"
   inkscape:window-width="1920"
   inkscape:pageshadow="2"
   inkscape:pageopacity="0"
   guidetolerance="10"
   gridtolerance="10"
   objecttolerance="10"
   borderopacity="1"
   bordercolor="#666666"
   pagecolor="#ffffff"
   inkscape:document-rotation="0" />
<g
   transform="matrix(0.14190631,0,0,0.17089844,0,-7.9253775)"
   style="fill:#ffffff"
   id="g6">
	<g
   style="fill:#ffffff"
   id="g4">
		<path
   style="fill:#ffffff"
   id="path2"
   d="M 140.474,47.787 H 71.151 C 60.15,47.787 51.2,56.737 51.2,67.738 v 61.969 c 0,1.884 1.529,3.413 3.413,3.413 h 102.255 c 1.961,0 3.558,-1.597 3.557,-3.558 V 67.738 c 0,-11.002 -8.95,-19.951 -19.951,-19.951 z M 153.6,126.293 H 58.027 V 67.738 c 0,-7.236 5.886,-13.124 13.124,-13.124 h 69.325 c 7.236,0 13.124,5.888 13.124,13.124 z" />
	</g>
</g>
<g
   transform="matrix(0.14190631,0,0,0.17089844,0,-7.9253775)"
   style="fill:#ffffff"
   id="g12">
	<g
   style="fill:#ffffff"
   id="g10">
		<path
   style="fill:#ffffff"
   id="path8"
   d="M 40.96,51.2 H 13.653 c -1.884,0 -3.413,1.529 -3.413,3.413 0,1.884 1.529,3.413 3.413,3.413 H 40.96 c 1.884,0 3.413,-1.529 3.413,-3.413 0,-1.884 -1.529,-3.413 -3.413,-3.413 z" />
	</g>
</g>
<g
   transform="matrix(0.14190631,0,0,0.17089844,0,-7.9253775)"
   style="fill:#ffffff"
   id="g18">
	<g
   style="fill:#ffffff"
   id="g16">
		<path
   style="fill:#ffffff"
   id="path14"
   d="M 40.96,68.267 H 30.72 c -1.884,0 -3.413,1.529 -3.413,3.413 0,1.884 1.529,3.413 3.413,3.413 h 10.24 c 1.884,0 3.413,-1.529 3.413,-3.413 0,-1.884 -1.529,-3.413 -3.413,-3.413 z" />
	</g>
</g>
<g
   transform="matrix(0.14190631,0,0,0.17089844,0,-7.9253775)"
   style="fill:#ffffff"
   id="g24">
	<g
   style="fill:#ffffff"
   id="g22">
		<path
   style="fill:#ffffff"
   id="path20"
   d="M 20.48,68.267 H 3.413 C 1.529,68.267 0,69.796 0,71.68 c 0,1.884 1.529,3.413 3.413,3.413 H 20.48 c 1.884,0 3.413,-1.529 3.413,-3.413 0,-1.884 -1.529,-3.413 -3.413,-3.413 z" />
	</g>
</g>
<g
   transform="matrix(0.14190631,0,0,0.17089844,0,-7.9253775)"
   style="fill:#ffffff"
   id="g30">
	<g
   style="fill:#ffffff"
   id="g28">
		<path
   style="fill:#ffffff"
   id="path26"
   d="M 40.96,85.333 H 27.307 c -1.884,0 -3.413,1.529 -3.413,3.413 0,1.884 1.529,3.413 3.413,3.413 H 40.96 c 1.884,0 3.413,-1.529 3.413,-3.413 0,-1.884 -1.529,-3.413 -3.413,-3.413 z" />
	</g>
</g>
<g
   transform="matrix(0.14190631,0,0,0.17089844,0,-7.9253775)"
   style="fill:#ffffff"
   id="g36">
	<g
   style="fill:#ffffff"
   id="g34">
		<path
   style="fill:#ffffff"
   id="path32"
   d="M 172.974,150.187 H 96.283 c -1.884,0 -3.413,1.529 -3.413,3.413 0,1.884 1.529,3.413 3.413,3.413 h 76.691 c 1.884,0 3.413,-1.529 3.413,-3.413 0,-1.884 -1.529,-3.413 -3.413,-3.413 z" />
	</g>
</g>
<g
   transform="matrix(0.14190631,0,0,0.17089844,0,-7.9253775)"
   style="fill:#ffffff"
   id="g42">
	<g
   style="fill:#ffffff"
   id="g40">
		<path
   style="fill:#ffffff"
   id="path38"
   d="M 215.04,126.293 H 54.613 c -1.884,0 -3.413,1.529 -3.413,3.413 V 153.6 c 0,1.884 1.529,3.413 3.413,3.413 h 12.023 c 1.884,0 3.413,-1.529 3.413,-3.413 0,-1.884 -1.529,-3.413 -3.413,-3.413 h -8.61 V 133.12 h 153.6 v 8.271 c 0,4.85 -3.946,8.796 -8.796,8.796 h -1.574 c -1.884,0 -3.413,1.529 -3.413,3.413 0,1.884 1.529,3.413 3.413,3.413 h 1.574 c 8.615,0 15.623,-7.008 15.623,-15.623 v -11.684 c 0,-1.883 -1.529,-3.413 -3.413,-3.413 z" />
	</g>
</g>
<g
   transform="matrix(0.14190631,0,0,0.17089844,0,-7.9253775)"
   style="fill:#ffffff"
   id="g48">
	<g
   style="fill:#ffffff"
   id="g46">
		<path
   style="fill:#ffffff"
   id="path44"
   d="m 181.245,71.68 h -24.231 c -1.884,0 -3.413,1.529 -3.413,3.413 v 54.613 c 0,1.884 1.529,3.413 3.413,3.413 h 58.027 c 1.884,0 3.413,-1.529 3.413,-3.413 V 108.888 C 218.453,88.371 201.762,71.68 181.245,71.68 Z m 30.382,54.613 h -51.2 V 78.507 h 20.818 c 16.753,0 30.382,13.631 30.382,30.382 z" />
	</g>
</g>
<g
   transform="matrix(0.14190631,0,0,0.17089844,0,-7.9253775)"
   style="fill:#ffffff"
   id="g54">
	<g
   style="fill:#ffffff"
   id="g52">
		<path
   style="fill:#ffffff"
   id="path50"
   d="m 184.32,85.333 h -17.067 c -1.884,0 -3.413,1.529 -3.413,3.413 v 20.48 c 0,1.884 1.529,3.413 3.413,3.413 H 204.8 c 1.884,0 3.413,-1.529 3.413,-3.413 0,-13.175 -10.718,-23.893 -23.893,-23.893 z m -13.653,20.48 V 92.16 h 13.653 c 8.242,0 15.136,5.873 16.724,13.653 z" />
	</g>
</g>
<g
   transform="matrix(0.14190631,0,0,0.17089844,0,-7.9253775)"
   style="fill:#ffffff"
   id="g60">
	<g
   style="fill:#ffffff"
   id="g58">
		<path
   style="fill:#ffffff"
   id="path56"
   d="m 81.92,136.533 c -9.411,0 -17.067,7.656 -17.067,17.067 0,9.411 7.656,17.067 17.067,17.067 9.411,0 17.067,-7.656 17.067,-17.067 0,-9.411 -7.656,-17.067 -17.067,-17.067 z m 0,27.307 c -5.647,0 -10.24,-4.593 -10.24,-10.24 0,-5.647 4.593,-10.24 10.24,-10.24 5.647,0 10.24,4.593 10.24,10.24 0,5.647 -4.593,10.24 -10.24,10.24 z" />
	</g>
</g>
<g
   transform="matrix(0.14190631,0,0,0.17089844,0,-7.9253775)"
   style="fill:#ffffff"
   id="g66">
	<g
   style="fill:#ffffff"
   id="g64">
		<path
   style="fill:#ffffff"
   id="path62"
   d="m 187.733,136.533 c -9.411,0 -17.067,7.656 -17.067,17.067 0,9.411 7.656,17.067 17.067,17.067 9.411,0 17.067,-7.656 17.067,-17.067 0,-9.411 -7.656,-17.067 -17.067,-17.067 z m 0,27.307 c -5.647,0 -10.24,-4.593 -10.24,-10.24 0,-5.647 4.593,-10.24 10.24,-10.24 5.647,0 10.24,4.593 10.24,10.24 0,5.647 -4.592,10.24 -10.24,10.24 z" />
	</g>
</g>
<g
   transform="matrix(0.14190631,0,0,0.17089844,0,-7.9253775)"
   style="fill:#ffffff"
   id="g72">
	<g
   style="fill:#ffffff"
   id="g70">
		<path
   style="fill:#ffffff"
   id="path68"
   d="M 215.04,163.84 H 6.827 c -1.884,0 -3.413,1.529 -3.413,3.413 0,1.884 1.529,3.413 3.413,3.413 H 215.04 c 1.884,0 3.413,-1.529 3.413,-3.413 0,-1.884 -1.529,-3.413 -3.413,-3.413 z" />
	</g>
</g>
<g
   transform="matrix(0.14190631,0,0,0.17089844,0,-7.9253775)"
   style="fill:#ffffff"
   id="g74">
</g>
<g
   transform="matrix(0.14190631,0,0,0.17089844,0,-7.9253775)"
   style="fill:#ffffff"
   id="g76">
</g>
<g
   transform="matrix(0.14190631,0,0,0.17089844,0,-7.9253775)"
   style="fill:#ffffff"
   id="g78">
</g>
<g
   transform="matrix(0.14190631,0,0,0.17089844,0,-7.9253775)"
   style="fill:#ffffff"
   id="g80">
</g>
<g
   transform="matrix(0.14190631,0,0,0.17089844,0,-7.9253775)"
   style="fill:#ffffff"
   id="g82">
</g>
<g
   transform="matrix(0.14190631,0,0,0.17089844,0,-7.9253775)"
   style="fill:#ffffff"
   id="g84">
</g>
<g
   transform="matrix(0.14190631,0,0,0.17089844,0,-7.9253775)"
   style="fill:#ffffff"
   id="g86">
</g>
<g
   transform="matrix(0.14190631,0,0,0.17089844,0,-7.9253775)"
   style="fill:#ffffff"
   id="g88">
</g>
<g
   transform="matrix(0.14190631,0,0,0.17089844,0,-7.9253775)"
   style="fill:#ffffff"
   id="g90">
</g>
<g
   transform="matrix(0.14190631,0,0,0.17089844,0,-7.9253775)"
   style="fill:#ffffff"
   id="g92">
</g>
<g
   transform="matrix(0.14190631,0,0,0.17089844,0,-7.9253775)"
   style="fill:#ffffff"
   id="g94">
</g>
<g
   transform="matrix(0.14190631,0,0,0.17089844,0,-7.9253775)"
   style="fill:#ffffff"
   id="g96">
</g>
<g
   transform="matrix(0.14190631,0,0,0.17089844,0,-7.9253775)"
   style="fill:#ffffff"
   id="g98">
</g>
<g
   transform="matrix(0.14190631,0,0,0.17089844,0,-7.9253775)"
   style="fill:#ffffff"
   id="g100">
</g>
<g
   transform="matrix(0.14190631,0,0,0.17089844,0,-7.9253775)"
   style="fill:#ffffff"
   id="g102">
</g>
</svg>
