<?xml version="1.0" encoding="UTF-8" standalone="no"?>
<svg
   xmlns:dc="http://purl.org/dc/elements/1.1/"
   xmlns:cc="http://creativecommons.org/ns#"
   xmlns:rdf="http://www.w3.org/1999/02/22-rdf-syntax-ns#"
   xmlns:svg="http://www.w3.org/2000/svg"
   xmlns="http://www.w3.org/2000/svg"
   xmlns:sodipodi="http://sodipodi.sourceforge.net/DTD/sodipodi-0.dtd"
   xmlns:inkscape="http://www.inkscape.org/namespaces/inkscape"
   inkscape:version="1.0 (4035a4f, 2020-05-01)"
   sodipodi:docname="calendar.svg"
   xml:space="preserve"
   viewBox="0 0 24 22"
   height="22"
   width="24"
   y="0px"
   x="0px"
   id="Capa_1"
   version="1.1"><metadata
   id="metadata914"><rdf:RDF><cc:Work
       rdf:about=""><dc:format>image/svg+xml</dc:format><dc:type
         rdf:resource="http://purl.org/dc/dcmitype/StillImage" /><dc:title></dc:title></cc:Work></rdf:RDF></metadata><defs
   id="defs912" /><sodipodi:namedview
   inkscape:current-layer="Capa_1"
   inkscape:window-maximized="1"
   inkscape:window-y="112"
   inkscape:window-x="0"
   inkscape:cy="16.375"
   inkscape:cx="16.375"
   inkscape:zoom="26.259542"
   showgrid="false"
   id="namedview910"
   inkscape:window-height="1035"
   inkscape:window-width="1920"
   inkscape:pageshadow="2"
   inkscape:pageopacity="0"
   guidetolerance="10"
   gridtolerance="10"
   objecttolerance="10"
   borderopacity="1"
   bordercolor="#666666"
   pagecolor="#ffffff" />
<g
   transform="matrix(0.6984127,0,0,0.67175573,-0.38272887,0.0761628)"
   style="fill:#f9f9f9"
   id="g877">
	<g
   style="fill:#f9f9f9"
   id="g875">
		<path
   style="fill:#f9f9f9"
   id="path833"
   d="M 29.375,1.25 H 28.252 C 28.281,1.157 28.311,1.064 28.311,0.961 28.311,0.43 27.879,0 27.348,0 c -0.531,0 -0.961,0.431 -0.961,0.961 0,0.103 0.028,0.196 0.059,0.289 h -3.68 C 22.795,1.157 22.825,1.064 22.825,0.961 22.824,0.43 22.393,0 21.861,0 21.332,0 20.9,0.431 20.9,0.961 c 0,0.103 0.029,0.196 0.06,0.289 H 17.279 C 17.308,1.157 17.337,1.064 17.337,0.961 17.337,0.43 16.907,0 16.376,0 c -0.531,0 -0.961,0.431 -0.961,0.961 0,0.103 0.028,0.196 0.058,0.289 H 11.792 C 11.821,1.157 11.851,1.064 11.851,0.961 11.851,0.43 11.42,0 10.89,0 10.359,0 9.928,0.431 9.928,0.961 c 0,0.103 0.028,0.196 0.058,0.289 H 6.306 C 6.336,1.157 6.365,1.064 6.365,0.961 6.365,0.43 5.935,0 5.404,0 4.873,0 4.442,0.431 4.442,0.961 4.442,1.064 4.47,1.157 4.5,1.25 H 3.375 C 1.857,1.25 0.625,2.483 0.625,4 v 26 c 0,1.518 1.232,2.75 2.75,2.75 H 26.27 l 5.855,-5.855 V 4 c 0,-1.516 -1.232,-2.75 -2.75,-2.75 z m 1.25,25.023 -0.311,0.311 h -2.355 c -1.102,0 -2,0.9 -2,2 v 2.355 L 25.648,31.25 H 3.375 C 2.686,31.25 2.125,30.689 2.125,30 V 5 h 28.5 z" />
		<rect
   style="fill:#f9f9f9"
   id="rect835"
   height="3.536"
   width="3.536"
   y="7.5349998"
   x="9.8920002" />
		<rect
   style="fill:#f9f9f9"
   id="rect837"
   height="3.536"
   width="3.536"
   y="7.5349998"
   x="14.607" />
		<rect
   style="fill:#f9f9f9"
   id="rect839"
   height="3.536"
   width="3.5350001"
   y="7.5349998"
   x="19.322001" />
		<rect
   style="fill:#f9f9f9"
   id="rect841"
   height="3.536"
   width="3.5369999"
   y="7.5349998"
   x="24.037001" />
		<rect
   style="fill:#f9f9f9"
   id="rect843"
   height="3.5369999"
   width="3.5369999"
   y="12.25"
   x="5.1760001" />
		<rect
   style="fill:#f9f9f9"
   id="rect845"
   height="3.5369999"
   width="3.536"
   y="12.25"
   x="9.8920002" />
		<rect
   style="fill:#f9f9f9"
   id="rect847"
   height="3.5369999"
   width="3.536"
   y="12.25"
   x="14.607" />
		<rect
   style="fill:#f9f9f9"
   id="rect849"
   height="3.5369999"
   width="3.5350001"
   y="12.25"
   x="19.322001" />
		<rect
   style="fill:#f9f9f9"
   id="rect851"
   height="3.5369999"
   width="3.5369999"
   y="12.25"
   x="24.037001" />
		<rect
   style="fill:#f9f9f9"
   id="rect853"
   height="3.5369999"
   width="3.5369999"
   y="16.965"
   x="5.1760001" />
		<rect
   style="fill:#f9f9f9"
   id="rect855"
   height="3.5369999"
   width="3.536"
   y="16.965"
   x="9.8920002" />
		<rect
   style="fill:#f9f9f9"
   id="rect857"
   height="3.5369999"
   width="3.536"
   y="16.965"
   x="14.607" />
		<rect
   style="fill:#f9f9f9"
   id="rect859"
   height="3.5369999"
   width="3.5350001"
   y="16.965"
   x="19.322001" />
		<rect
   style="fill:#f9f9f9"
   id="rect861"
   height="3.5369999"
   width="3.5369999"
   y="16.965"
   x="24.037001" />
		<rect
   style="fill:#f9f9f9"
   id="rect863"
   height="3.536"
   width="3.5369999"
   y="21.68"
   x="5.1760001" />
		<rect
   style="fill:#f9f9f9"
   id="rect865"
   height="3.536"
   width="3.536"
   y="21.68"
   x="9.8920002" />
		<rect
   style="fill:#f9f9f9"
   id="rect867"
   height="3.536"
   width="3.536"
   y="21.68"
   x="14.607" />
		<rect
   style="fill:#f9f9f9"
   id="rect869"
   height="3.536"
   width="3.5350001"
   y="21.68"
   x="19.322001" />
		<rect
   style="fill:#f9f9f9"
   id="rect871"
   height="3.536"
   width="3.5369999"
   y="21.68"
   x="24.037001" />
		<rect
   style="fill:#f9f9f9"
   id="rect873"
   height="1.768"
   width="8.2510004"
   y="26.983999"
   x="5.1760001" />
	</g>
</g>
<g
   transform="matrix(0.79365079,0,0,0.76335878,0.12896825,0)"
   style="fill:#f9f9f9"
   id="g879">
</g>
<g
   transform="matrix(0.79365079,0,0,0.76335878,0.12896825,0)"
   style="fill:#f9f9f9"
   id="g881">
</g>
<g
   transform="matrix(0.79365079,0,0,0.76335878,0.12896825,0)"
   style="fill:#f9f9f9"
   id="g883">
</g>
<g
   transform="matrix(0.79365079,0,0,0.76335878,0.12896825,0)"
   style="fill:#f9f9f9"
   id="g885">
</g>
<g
   transform="matrix(0.79365079,0,0,0.76335878,0.12896825,0)"
   style="fill:#f9f9f9"
   id="g887">
</g>
<g
   transform="matrix(0.79365079,0,0,0.76335878,0.12896825,0)"
   style="fill:#f9f9f9"
   id="g889">
</g>
<g
   transform="matrix(0.79365079,0,0,0.76335878,0.12896825,0)"
   style="fill:#f9f9f9"
   id="g891">
</g>
<g
   transform="matrix(0.79365079,0,0,0.76335878,0.12896825,0)"
   style="fill:#f9f9f9"
   id="g893">
</g>
<g
   transform="matrix(0.79365079,0,0,0.76335878,0.12896825,0)"
   style="fill:#f9f9f9"
   id="g895">
</g>
<g
   transform="matrix(0.79365079,0,0,0.76335878,0.12896825,0)"
   style="fill:#f9f9f9"
   id="g897">
</g>
<g
   transform="matrix(0.79365079,0,0,0.76335878,0.12896825,0)"
   style="fill:#f9f9f9"
   id="g899">
</g>
<g
   transform="matrix(0.79365079,0,0,0.76335878,0.12896825,0)"
   style="fill:#f9f9f9"
   id="g901">
</g>
<g
   transform="matrix(0.79365079,0,0,0.76335878,0.12896825,0)"
   style="fill:#f9f9f9"
   id="g903">
</g>
<g
   transform="matrix(0.79365079,0,0,0.76335878,0.12896825,0)"
   style="fill:#f9f9f9"
   id="g905">
</g>
<g
   transform="matrix(0.79365079,0,0,0.76335878,0.12896825,0)"
   style="fill:#f9f9f9"
   id="g907">
</g>
</svg>
