<?xml version="1.0" encoding="UTF-8" standalone="no"?>
<svg
   xmlns:dc="http://purl.org/dc/elements/1.1/"
   xmlns:cc="http://creativecommons.org/ns#"
   xmlns:rdf="http://www.w3.org/1999/02/22-rdf-syntax-ns#"
   xmlns:svg="http://www.w3.org/2000/svg"
   xmlns="http://www.w3.org/2000/svg"
   xmlns:sodipodi="http://sodipodi.sourceforge.net/DTD/sodipodi-0.dtd"
   xmlns:inkscape="http://www.inkscape.org/namespaces/inkscape"
   inkscape:version="1.0 (4035a4f, 2020-05-01)"
   sodipodi:docname="store.svg"
   version="1.1"
   width="26"
   viewBox="0 0 26 26"
   height="26"
   enable-background="new 0 0 512 512"
   id="Capa_1">
  <metadata
     id="metadata840">
    <rdf:RDF>
      <cc:Work
         rdf:about="">
        <dc:format>image/svg+xml</dc:format>
        <dc:type
           rdf:resource="http://purl.org/dc/dcmitype/StillImage" />
        <dc:title></dc:title>
      </cc:Work>
    </rdf:RDF>
  </metadata>
  <defs
     id="defs838" />
  <sodipodi:namedview
     inkscape:current-layer="Capa_1"
     inkscape:window-maximized="1"
     inkscape:window-y="23"
     inkscape:window-x="1920"
     inkscape:cy="256"
     inkscape:cx="256"
     inkscape:zoom="1.6796875"
     showgrid="false"
     id="namedview836"
     inkscape:window-height="1035"
     inkscape:window-width="1920"
     inkscape:pageshadow="2"
     inkscape:pageopacity="0"
     guidetolerance="10"
     gridtolerance="10"
     objecttolerance="10"
     borderopacity="1"
     bordercolor="#666666"
     pagecolor="#ffffff" />
  <path
     style="fill:#f9f9f9;stroke-width:0.0507812"
     id="path833"
     d="M 26,11.947356 V 8.1990896 L 22.953125,3.6287773 V 0 H 3.046875 V 3.6287266 L 0,8.199039 v 3.748265 l 1.5234375,0.761719 V 24.476564 H 0 V 26 H 26 V 24.476564 H 24.476564 V 12.709073 Z M 22.191406,12.148399 19.90625,11.00582 V 9.1914065 h 4.570314 V 11.00577 Z M 1.5234375,11.00582 V 9.1914065 H 6.09375 V 11.00577 L 3.8085936,12.148347 Z M 19.693578,7.6679691 18.677953,4.6210936 h 3.105833 l 2.03125,3.0468755 z M 17.072097,4.6210936 18.087722,7.6679691 H 13.76172 V 4.6210936 Z M 12.238281,7.6679691 H 7.9123281 L 8.9279528,4.6210936 h 3.3103282 z m -5.931859,0 H 2.1850156 l 2.03125,-3.0468755 H 7.3220977 Z M 7.6171874,9.1914065 H 12.238281 V 11.002317 L 9.9051372,12.14977 7.6171874,11.00582 Z m 6.1445326,0 h 4.621094 V 11.00577 l -2.287951,1.14395 -2.333144,-1.147403 z M 4.5703125,1.5234375 H 21.429686 V 3.0976564 H 4.5703125 Z M 13.76172,21.378906 H 6.09375 v -4.570312 h 7.66797 z m 6.14453,0 h -1.523436 v 1.523438 h 1.523436 v 1.57422 h -4.621094 v -7.66797 h 4.621094 z m 3.046875,3.097658 h -1.523439 c 0,-1.768153 0,-6.513358 0,-9.191408 -1.75703,0 -15.0692329,0 -16.8593735,0 v 7.617188 H 13.76172 v 1.57422 H 3.046875 v -11.00577 l 0.7617186,0.380859 3.046875,-1.523438 3.0440815,1.522066 L 13,12.325422 l 3.10045,1.524808 3.044081,-1.522015 3.046875,1.523438 0.761719,-0.380859 z" />
</svg>
